<?xml version="1.0" encoding="UTF-8" standalone="no"?> <svg width="512" height="512" viewBox="0 0 512 512" fill="none" xmlns="http://www.w3.org/2000/svg">
<path d="M256 48C167.8 48 96 119.8 96 208C96 296.2 167.8 368 256 368C344.2 368 416 296.2 416 208C416 119.8 344.2 48 256 48ZM256 64C335.4 64 400 128.6 400 208C400 219 398.8 229.7 396.4 240H291.8C289.8 222 274.5 208 256 208C237.5 208 222.2 222 220.2 240H115.6C113.3 229.7 112 219 112 208C112 128.6 176.6 64 256 64ZM256 248C260.4 248 264 244.4 264 240V225.7C271.1 228.8 276 235.9 276 244.1C276 255.2 267 264.1 256 264.1C245 264.1 236 255.1 236 244.1C236 235.9 241 228.8 248 225.7V240C248 244.4 251.6 248 256 248ZM256 352C193.4 352 140 311.9 120.2 256H222C226.9 270 240.3 280.1 256 280.1C271.7 280.1 285.1 270 290 256H391.8C372 311.9 318.6 352 256 352ZM448 208C448 102.1 361.9 16 256 16C150.1 16 64 102.1 64 208C64 262.4 86.7 311.6 123.2 346.6L113.9 344.3C109.6 343.2 105.3 345.8 104.2 350.1C103.1 354.4 105.7 358.7 110 359.8L124.5 363.4L115.5 369.4C111.8 371.9 110.8 376.8 113.3 380.5C115.8 384.2 120.7 385.2 124.4 382.7L136 375V392C136 396.4 139.6 400 144 400C148.4 400 152 396.4 152 392V369.3C182 388.7 217.7 400 256 400C294.3 400 330 388.7 360 369.3V392C360 396.4 363.6 400 368 400C372.4 400 376 396.4 376 392V374.9L387.6 382.6C391.3 385.1 396.2 384.1 398.7 380.4C401.2 376.7 400.2 371.8 396.5 369.3L387.5 363.3L402 359.7C406.3 358.6 408.9 354.3 407.8 350C406.7 345.7 402.4 343.1 398.1 344.2L388.8 346.5C425.3 311.6 448 262.4 448 208ZM80 208C80 111 159 32 256 32C353 32 432 111 432 208C432 305 353 384 256 384C159 384 80 305 80 208ZM264 312C264 316.4 260.4 320 256 320C251.6 320 248 316.4 248 312C248 307.6 251.6 304 256 304C260.4 304 264 307.6 264 312ZM232 312C232 315.3 229.3 318 226 318C222.7 318 220 315.3 220 312C220 308.7 222.7 306 226 306C229.3 306 232 308.7 232 312ZM292 312C292 315.3 289.3 318 286 318C282.7 318 280 315.3 280 312C280 308.7 282.7 306 286 306C289.3 306 292 308.7 292 312ZM150.2 460.6C153 464.1 152.4 469.1 149 471.8L141 478.2C139.5 479.4 137.8 480 136 480C133.7 480 131.3 479 129.7 477C126.9 473.5 127.5 468.5 130.9 465.8L138.9 459.4C142.5 456.6 147.5 457.2 150.2 460.6ZM191.8 409.9C187.8 425.8 180.1 440.8 169.4 453.2C167.8 455 165.6 456 163.3 456C161.5 456 159.6 455.4 158.1 454.1C154.7 451.2 154.4 446.2 157.2 442.8C166.3 432.3 172.8 419.6 176.2 406.1C177.3 401.8 181.6 399.2 185.9 400.3C190.2 401.3 192.8 405.7 191.8 409.9ZM264 480V488C264 492.4 260.4 496 256 496C251.6 496 248 492.4 248 488V480C248 475.6 251.6 472 256 472C260.4 472 264 475.6 264 480ZM264 448C264 452.4 260.4 456 256 456C251.6 456 248 452.4 248 448V424C248 419.6 251.6 416 256 416C260.4 416 264 419.6 264 424V448ZM185.6 476.2L190.4 469.8C192.5 467 194.5 464 196.2 461C198.4 457.2 203.3 455.9 207.1 458.1C210.9 460.3 212.2 465.2 210 469C207.9 472.6 205.6 476.1 203.1 479.4L198.3 485.8C196.7 487.9 194.3 489 191.9 489C190.2 489 188.5 488.5 187.1 487.4C183.7 484.7 182.9 479.7 185.6 476.2ZM213 449C212.3 449 211.7 448.9 211 448.7C206.7 447.6 204.1 443.2 205.3 439C207.2 431.8 208.1 424.4 208.1 417C208.1 412.6 211.7 409 216.1 409C220.5 409 224.1 412.6 224.1 417C224.1 425.8 223 434.5 220.8 443C219.8 446.6 216.5 449 213 449ZM381 465.8C384.5 468.6 385 473.6 382.2 477C380.6 479 378.3 480 375.9 480C374.1 480 372.4 479.4 370.9 478.2L362.9 471.8C359.4 469 358.9 464 361.7 460.6C364.5 457.2 369.5 456.6 372.9 459.4L381 465.8ZM342.6 453.2C331.9 440.8 324.2 425.8 320.2 409.9C319.1 405.6 321.7 401.3 326 400.2C330.3 399.1 334.6 401.7 335.7 406C339.1 419.5 345.6 432.2 354.7 442.7C357.6 446.1 357.2 451.1 353.8 454C352.3 455.3 350.4 455.9 348.6 455.9C346.5 456 344.2 455.1 342.6 453.2ZM301.9 469C299.7 465.2 301 460.3 304.8 458.1C308.6 455.9 313.5 457.2 315.7 461C317.5 464 319.4 467 321.5 469.8L326.3 476.2C329 479.7 328.2 484.7 324.7 487.4C323.3 488.5 321.6 489 319.9 489C317.5 489 315.1 487.9 313.5 485.8L308.7 479.4C306.3 476.1 304 472.6 301.9 469ZM301 448.7C300.3 448.9 299.7 449 299 449C295.4 449 292.2 446.6 291.3 443C289.1 434.5 288 425.8 288 417C288 412.6 291.6 409 296 409C300.4 409 304 412.6 304 417C304 424.4 304.9 431.8 306.8 439C307.9 443.3 305.3 447.6 301 448.7ZM175.3 138.5C195.2 114.1 224.6 100.1 256 100.1C264.8 100.1 273.5 101.2 282 103.4C286.3 104.5 288.9 108.9 287.8 113.1C286.7 117.4 282.3 120 278.1 118.9C271 117.1 263.6 116.1 256.1 116.1C229.5 116.1 204.6 128 187.8 148.6C186.2 150.5 183.9 151.6 181.6 151.6C179.8 151.6 178 151 176.6 149.8C173 147 172.5 141.9 175.3 138.5ZM297.1 116.9C299.3 113.1 304.2 111.8 308 114C319 120.4 328.7 128.6 336.7 138.5C339.5 141.9 339 147 335.5 149.8C334 151 332.2 151.6 330.5 151.6C328.2 151.6 325.9 150.6 324.3 148.6C317.5 140.2 309.3 133.2 300 127.9C296.2 125.6 294.9 120.8 297.1 116.9ZM242 149.9C230.5 152.9 220.1 159.6 212.5 168.8C210.9 170.7 208.6 171.8 206.3 171.8C204.5 171.8 202.7 171.2 201.3 170C197.9 167.2 197.4 162.2 200.1 158.7C209.8 146.8 223.2 138.2 238 134.4C242.3 133.3 246.6 135.9 247.7 140.2C248.8 144.4 246.3 148.8 242 149.9ZM311.9 158.7C314.7 162.1 314.2 167.2 310.7 170C309.2 171.2 307.4 171.8 305.7 171.8C303.4 171.8 301.1 170.8 299.5 168.8C290.3 157.5 277.4 150.3 263 148.5C258.6 148 255.5 144 256.1 139.6C256.6 135.2 260.6 132.1 265 132.7C283.4 134.9 300.1 144.2 311.9 158.7ZM264 172.1C264 176.5 260.4 180.1 256 180.1C248.7 180.1 242 183.3 237.4 189C235.8 190.9 233.5 192 231.2 192C229.4 192 227.6 191.4 226.2 190.2C222.8 187.4 222.3 182.4 225 178.9C232.6 169.5 244 164.1 256 164.1C260.4 164.1 264 167.7 264 172.1ZM287 178.9C289.8 182.3 289.3 187.4 285.8 190.2C284.3 191.4 282.5 192 280.8 192C278.5 192 276.2 191 274.6 189C273.8 188 272.8 187 271.8 186.1C268.5 183.2 268.2 178.1 271.1 174.8C274 171.5 279.1 171.2 282.4 174.1C284.1 175.5 285.6 177.2 287 178.9Z" fill="url(#paint0_linear_9_12415)"/>
<defs>
<linearGradient id="paint0_linear_9_12415" x1="89.3208" y1="436.636" x2="422.679" y2="103.277" gradientUnits="userSpaceOnUse">
<stop stop-color="#41DFD0"/>
<stop offset="1" stop-color="#EE83EF"/>
</linearGradient>
</defs>
</svg>
