<?xml version="1.0" encoding="UTF-8" standalone="no"?> <svg id="Layer_1" data-name="Layer 1" xmlns="http://www.w3.org/2000/svg" viewBox="0 0 128 128"><defs><style>.cls-1{fill:#2d3e50;}.cls-2{fill:#1d75b8;}</style></defs><title>a</title><path class="cls-1" d="M79.13757,109.647a26.2788,26.2788,0,0,0,2.61747,5.52337,6.34947,6.34947,0,0,1-2.52494,4.59824,4.61109,4.61109,0,0,0-1.7305,4.7833H.82564s.31018-17.33735,2.0733-27.61678a10.96719,10.96719,0,0,1,5.90971-7.96125c10.27944-5.12069,32.83-12.69012,32.83-12.69012V68.834l-.62581-.47343A21.50814,21.50814,0,0,1,32.8339,54.6692l-.1306-.79447h-.6095a8.32691,8.32691,0,0,1-7.70548-5.18054,9.06518,9.06518,0,0,1-1.13189-4.39148,8.34394,8.34394,0,0,1,.59316-3.08545A4.29779,4.29779,0,0,1,25.52021,38.529L27.599,37.26655l-.517-2.2583C23.32173,18.62318,36.0173,3.86521,53.0608,3.45708c.419-.01086.82715-.01086,1.23528-.00545.40813-.00541.81626-.00541,1.22984.00545,17.04892.40813,29.739,15.1661,25.98426,31.55118l-.517,2.2583L83.072,38.529a4.32093,4.32093,0,0,1,1.67058,2.68822,8.34394,8.34394,0,0,1,.59316,3.08545,9.06969,9.06969,0,0,1-1.13734,4.39148,8.31375,8.31375,0,0,1-7.7,5.18054h-.61492l-.12515.79447a21.554,21.554,0,0,1-8.17894,13.69141l-.63123.47343v7.44973s9.49038,3.1834,18.96442,6.81847a26.63641,26.63641,0,0,0-6.82937,26.387Z"/><path class="cls-2" d="M126.9479,98.84431A22.53828,22.53828,0,1,0,82.31825,105.176a22.19009,22.19009,0,0,0,.68229,3.1646,22.69593,22.69593,0,0,0,2.82347,5.59855c.01118.17866.02234.35852.02359.53593a10.38433,10.38433,0,0,1-4.17566,8.56593.53922.53922,0,0,0,.24067.96636,16.06286,16.06286,0,0,0,11.28268-2.57784c.10174-.067.20222-.13646.30146-.20593l.08187-.05954a26.64415,26.64415,0,0,0,8.27193,3.218A22.5551,22.5551,0,0,0,126.9479,98.84431Z"/></svg>